<?xml version="1.0" encoding="UTF-8"?>
<svg xmlns="http://www.w3.org/2000/svg" xmlns:xlink="http://www.w3.org/1999/xlink" width="258pt" height="222pt" viewBox="0 0 258 222" version="1.1">
<g id="surface321">
<path style=" stroke:none;fill-rule:nonzero;fill:rgb(80.000001%,80.000001%,80.000001%);fill-opacity:1;" d="M 81.300781 3.753906 C 84.851562 2.023438 88.609375 0.679688 92.410156 0.195312 C 96.214844 -0.289062 100.066406 0.0859375 103.800781 1.800781 C 106.757812 2.578125 109.664062 3.6875 112.5 4.976562 C 115.332031 6.265625 118.089844 7.738281 120.753906 9.242188 C 123.386719 11.9375 126.117188 14.558594 128.65625 17.339844 C 131.191406 20.121094 133.53125 23.058594 135.382812 26.378906 C 138.226562 29.984375 140.96875 33.667969 143.59375 37.4375 C 146.214844 41.203125 148.71875 45.054688 151.082031 48.996094 C 152.265625 53.914062 153.839844 58.835938 156.046875 63.417969 C 158.257812 67.996094 161.097656 72.238281 164.816406 75.785156 C 169.0625 80.5625 171.988281 86.160156 174.175781 92.089844 C 176.363281 98.023438 177.8125 104.285156 179.109375 110.390625 C 179.394531 113.132812 179.429688 115.890625 179.371094 118.640625 C 179.3125 121.390625 179.160156 124.140625 179.070312 126.863281 C 180.707031 129.855469 182.699219 132.761719 185.113281 135.203125 C 187.53125 137.640625 190.375 139.617188 193.714844 140.75 C 197.738281 143.730469 202.183594 146.269531 206.890625 148.070312 C 211.597656 149.871094 216.570312 150.929688 221.652344 150.957031 C 225.835938 151.839844 228.769531 154.613281 231.253906 157.949219 C 233.738281 161.289062 235.773438 165.1875 238.164062 168.316406 C 239.78125 171.613281 241.171875 175.0625 242.796875 178.359375 C 244.425781 181.65625 246.289062 184.804688 248.851562 187.503906 C 247.988281 191.136719 246.578125 194.628906 246.667969 197.601562 C 246.761719 200.570312 248.351562 203.023438 253.492188 204.578125 C 256.820312 205.96875 258.667969 208.152344 258.609375 209.808594 C 258.550781 211.464844 256.585938 212.59375 252.28125 211.875 C 247.96875 214.375 243.839844 214.070312 239.738281 213.027344 C 235.632812 211.984375 231.550781 210.199219 227.328125 209.734375 C 230.542969 211.261719 232.277344 214.085938 232.097656 216.476562 C 231.917969 218.867188 229.824219 220.824219 225.375 220.609375 C 221.195312 221.417969 217.34375 220.195312 213.492188 218.910156 C 209.640625 217.628906 205.789062 216.277344 201.609375 216.828125 C 197.539062 216.160156 193.40625 216.074219 189.300781 215.824219 C 185.195312 215.578125 181.125 215.164062 177.179688 213.839844 C 174.394531 213.417969 171.828125 212.066406 169.304688 210.84375 C 166.78125 209.621094 164.300781 208.53125 161.691406 208.644531 C 158.589844 208.292969 155.746094 207.980469 153.140625 207.296875 C 150.53125 206.613281 148.15625 205.5625 145.996094 203.734375 C 143.34375 200.671875 140.386719 200.367188 137.371094 201.09375 C 134.355469 201.816406 131.28125 203.566406 128.386719 204.605469 C 125.953125 203.347656 123.910156 204.441406 121.820312 205.675781 C 119.730469 206.910156 117.59375 208.285156 114.984375 207.597656 C 112.589844 206.480469 110.105469 206.4375 107.585938 206.609375 C 105.066406 206.777344 102.511719 207.160156 99.972656 206.878906 C 96.734375 207.660156 93.6875 207.679688 90.617188 207.417969 C 87.542969 207.152344 84.449219 206.597656 81.121094 206.234375 C 76.523438 205.117188 71.882812 205.175781 67.320312 205.949219 C 62.757812 206.722656 58.273438 208.210938 53.984375 209.953125 C 51.765625 210.535156 49.160156 211.386719 46.640625 211.777344 C 44.121094 212.167969 41.691406 212.09375 39.816406 210.824219 C 38.609375 208.707031 38.085938 206.355469 38.597656 204.339844 C 39.113281 202.324219 40.660156 200.648438 43.605469 199.886719 C 46.058594 198.808594 48.503906 197.785156 50.886719 196.660156 C 53.273438 195.53125 55.601562 194.300781 57.816406 192.804688 C 61.15625 191.046875 64.703125 189.449219 67.996094 187.511719 C 71.292969 185.578125 74.332031 183.304688 76.65625 180.191406 C 73.726562 177.285156 73.214844 173.320312 73.304688 169.179688 C 73.398438 165.039062 74.097656 160.730469 73.585938 157.132812 C 71.433594 150.425781 70.875 143.488281 70.921875 136.5 C 70.96875 129.511719 71.617188 122.472656 71.882812 115.554688 C 72.5 113.414062 72.8125 111.109375 73.203125 108.863281 C 73.597656 106.617188 74.070312 104.425781 75.007812 102.503906 C 75.371094 102.539062 75.585938 100.960938 75.9375 99.28125 C 76.292969 97.597656 76.789062 95.816406 77.714844 95.441406 C 78.851562 94.46875 79.503906 93.152344 79.960938 91.648438 C 80.417969 90.148438 80.675781 88.464844 81.015625 86.765625 C 82.1875 82.691406 82.421875 78.339844 81.5625 74.257812 C 80.703125 70.175781 78.75 66.363281 75.558594 63.367188 C 72.742188 61.964844 71.214844 57.363281 69.757812 54.082031 C 68.296875 50.800781 66.902344 48.84375 64.347656 52.726562 C 60.71875 56.367188 58.421875 60.835938 56.726562 65.578125 C 55.03125 70.320312 53.941406 75.332031 52.734375 80.058594 C 52.332031 82.484375 51.027344 86.082031 50.078125 87.722656 C 49.128906 89.363281 48.53125 89.050781 49.554688 83.660156 C 51.328125 77.777344 52.617188 71.546875 54.527344 65.59375 C 56.433594 59.640625 58.960938 53.972656 63.199219 49.214844 C 65.363281 47.007812 63.855469 44.992188 61.875 44.46875 C 59.890625 43.949219 57.433594 44.925781 57.691406 48.707031 C 56.265625 53.152344 53.828125 57.316406 51.753906 61.597656 C 49.683594 65.882812 47.980469 70.292969 48.023438 75.226562 C 47.535156 77.703125 47.152344 80.316406 46.65625 82.863281 C 46.164062 85.410156 45.5625 87.890625 44.628906 90.105469 C 44.199219 86.210938 44.5 82.296875 45.070312 78.394531 C 45.640625 74.492188 46.484375 70.609375 47.144531 66.773438 C 48.550781 63.230469 50.226562 59.816406 51.863281 56.394531 C 53.5 52.972656 55.101562 49.539062 56.347656 45.953125 C 58.460938 44.519531 58.273438 42.292969 57.242188 40.011719 C 56.210938 37.730469 54.335938 35.394531 53.074219 33.734375 C 51.011719 30.800781 50.847656 26.972656 52.09375 23.730469 C 53.34375 20.488281 56.007812 17.828125 59.601562 17.242188 C 61.484375 15.238281 64.160156 13.269531 67.058594 11.34375 C 69.957031 9.417969 73.074219 7.539062 75.835938 5.710938 C 76.824219 5.074219 77.835938 5.113281 78.777344 5.046875 C 79.71875 4.980469 80.59375 4.808594 81.300781 3.753906 Z M 99.960938 3.101562 C 96.761719 1.703125 94.34375 2.027344 92.132812 2.914062 C 89.917969 3.796875 87.914062 5.242188 85.542969 6.082031 C 83.8125 7.300781 81.558594 7.554688 79.320312 7.945312 C 77.085938 8.335938 74.867188 8.859375 73.203125 10.613281 C 72.109375 11.964844 70.703125 13.339844 69.183594 14.445312 C 67.660156 15.554688 66.019531 16.398438 64.449219 16.699219 C 62.847656 18.457031 60.460938 19.199219 58.550781 20.238281 C 56.644531 21.28125 55.21875 22.621094 55.535156 25.582031 C 55.675781 28 56.40625 30.433594 57.5625 32.398438 C 58.722656 34.367188 60.308594 35.863281 62.164062 36.40625 C 62.71875 36.570312 63.652344 36.453125 64.429688 36.332031 C 65.203125 36.210938 65.824219 36.089844 65.765625 36.25 C 65.945312 36.511719 65.21875 36.671875 64.394531 36.84375 C 63.566406 37.011719 62.636719 37.191406 62.414062 37.484375 C 61.308594 38.925781 63.84375 41.308594 66.875 43.796875 C 69.90625 46.28125 73.433594 48.875 74.308594 50.738281 C 77.15625 53.125 78.441406 56.671875 79.941406 60.03125 C 81.4375 63.394531 83.144531 66.570312 86.835938 68.210938 C 89.101562 70.710938 89.363281 72.609375 89.070312 74.636719 C 88.777344 76.664062 87.929688 78.820312 87.980469 81.839844 C 87.824219 83.796875 87.707031 85.738281 87.441406 87.660156 C 87.175781 89.582031 86.761719 91.484375 86.011719 93.367188 C 84.761719 96.925781 84.355469 100.582031 84.390625 104.253906 C 84.425781 107.929688 84.898438 111.625 85.394531 115.261719 C 85.511719 117.488281 85.800781 119.703125 86.109375 121.921875 C 86.417969 124.136719 86.746094 126.359375 86.941406 128.605469 C 84.425781 126.1875 83.074219 123.058594 81.972656 119.789062 C 80.867188 116.519531 80.011719 113.105469 78.480469 110.117188 C 77.484375 115.15625 77.324219 120.28125 77.269531 125.414062 C 77.210938 130.546875 77.253906 135.6875 76.652344 140.75 C 76.820312 144.089844 77.515625 147.363281 78.160156 150.632812 C 78.804688 153.902344 79.398438 157.164062 79.375 160.488281 C 78.566406 163.136719 77.492188 166.953125 77.570312 170.152344 C 77.648438 173.355469 78.886719 175.941406 82.695312 176.144531 C 86.320312 178.25 89.441406 180.960938 92.285156 183.957031 C 95.128906 186.957031 97.699219 190.238281 100.214844 193.492188 C 101.707031 195.109375 103.371094 196.683594 105.222656 197.871094 C 107.078125 199.058594 109.121094 199.859375 111.363281 199.925781 C 113.410156 200.546875 115.582031 201.449219 117.632812 201.597656 C 119.6875 201.746094 121.625 201.140625 123.203125 198.738281 C 126.886719 193.894531 128.976562 188.167969 131.230469 182.539062 C 133.480469 176.910156 135.890625 171.378906 140.210938 166.917969 C 140.082031 165.230469 142.691406 162.125 145.015625 160.308594 C 147.34375 158.492188 149.386719 157.96875 148.128906 161.449219 C 145.777344 163.078125 144.863281 165.511719 144.023438 168.078125 C 143.183594 170.644531 142.417969 173.347656 140.355469 175.519531 C 138.714844 179.519531 137.238281 183.679688 135.605469 187.730469 C 133.96875 191.785156 132.179688 195.726562 129.902344 199.296875 C 133.179688 197.148438 136.847656 196.4375 140.378906 196.839844 C 143.910156 197.238281 147.300781 198.753906 150.027344 201.054688 C 153.066406 204.167969 157.203125 204.550781 161.398438 204.890625 C 165.59375 205.230469 169.84375 205.53125 173.101562 208.476562 C 177.824219 210.722656 182.867188 211.5 187.996094 211.898438 C 193.125 212.292969 198.339844 212.308594 203.410156 213.023438 C 207.171875 212.335938 210.960938 213.835938 214.628906 214.976562 C 218.296875 216.117188 221.839844 216.90625 225.121094 214.789062 C 223.148438 213.761719 220.890625 213.0625 218.558594 212.535156 C 216.226562 212.003906 213.820312 211.648438 211.554688 211.300781 C 209.253906 211.125 205.308594 210.523438 201.453125 209.136719 C 197.601562 207.746094 193.839844 205.570312 191.914062 202.253906 C 188.601562 200.367188 186.046875 197.269531 183.515625 194.246094 C 180.984375 191.222656 178.476562 188.273438 175.253906 186.679688 C 174.558594 185.5625 172.742188 183.609375 170.929688 181.359375 C 169.117188 179.113281 167.316406 176.570312 166.648438 174.28125 C 166.675781 171.890625 166.382812 169.238281 166.09375 166.664062 C 165.800781 164.085938 165.507812 161.582031 165.53125 159.492188 C 166.800781 156.84375 167.445312 153.910156 168.011719 150.929688 C 168.574219 147.949219 169.0625 144.921875 170.007812 142.089844 C 171.433594 135.421875 172.628906 128.488281 172.9375 121.554688 C 173.246094 114.621094 172.671875 107.6875 170.554688 101.019531 C 169.304688 95.558594 167.394531 90.242188 164.769531 85.320312 C 162.140625 80.402344 158.800781 75.875 154.695312 71.996094 C 151.988281 68.558594 150.140625 64.632812 148.660156 60.554688 C 147.175781 56.476562 146.054688 52.246094 144.789062 48.207031 C 143.101562 45.617188 141.625 42.941406 140.074219 40.324219 C 138.523438 37.710938 136.902344 35.15625 134.9375 32.8125 C 132.371094 29.441406 129.988281 25.945312 127.503906 22.535156 C 125.019531 19.125 122.433594 15.796875 119.457031 12.761719 C 117.203125 10.421875 114.496094 8.902344 111.636719 7.660156 C 108.777344 6.414062 105.765625 5.441406 102.898438 4.191406 C 102.664062 3.519531 102.078125 3.636719 101.476562 3.726562 C 100.875 3.816406 100.257812 3.878906 99.960938 3.101562 Z M 88.027344 15.28125 C 89.976562 14.59375 91.539062 14.460938 93.027344 14.640625 C 94.511719 14.820312 95.917969 15.3125 97.554688 15.878906 C 99.148438 17.109375 97.28125 16.394531 94.683594 15.925781 C 92.085938 15.457031 88.757812 15.234375 87.421875 17.457031 C 84.0625 19.597656 83.480469 19.542969 84.105469 18.710938 C 84.730469 17.875 86.5625 16.261719 88.027344 15.28125 Z M 55.261719 18.980469 C 55.5625 18.855469 55.5 19.007812 55.394531 19.113281 C 55.289062 19.21875 55.140625 19.28125 55.261719 18.980469 Z M 91.714844 20.066406 C 96.191406 21.984375 95.753906 24.425781 93.664062 25.699219 C 91.574219 26.976562 87.832031 27.085938 85.695312 24.34375 C 80.585938 23.050781 81.75 22.34375 84.363281 21.78125 C 86.976562 21.214844 91.035156 20.792969 91.714844 20.066406 Z M 112.761719 27.898438 C 116.976562 26.347656 120.519531 31.632812 121.890625 36.09375 C 123.261719 40.550781 122.464844 44.1875 118 39.335938 C 115.339844 39.328125 112.695312 37.578125 111.769531 36.28125 C 110.839844 34.988281 111.628906 34.144531 115.835938 35.945312 C 120.742188 38.703125 120.09375 37.390625 118.214844 35.199219 C 116.335938 33.007812 113.222656 29.9375 113.199219 29.183594 L 112.980469 28.542969 Z M 70.234375 33.988281 C 74.128906 33.273438 77.671875 34.546875 81 36.488281 C 84.328125 38.429688 87.445312 41.039062 90.484375 43 C 94.359375 46.019531 97.800781 49.527344 100.785156 53.398438 C 103.769531 57.269531 106.300781 61.5 108.359375 65.964844 C 109.390625 68.671875 110.535156 71.359375 111.445312 74.101562 C 112.355469 76.839844 113.023438 79.640625 113.105469 82.570312 C 113.492188 83.773438 114.046875 86.5 114.222656 88.1875 C 114.394531 89.871094 114.191406 90.515625 113.054688 87.542969 C 112.058594 84.835938 111.390625 82.027344 110.632812 79.257812 C 109.875 76.484375 109.027344 73.75 107.671875 71.1875 C 105.707031 65.914062 102.964844 60.964844 99.550781 56.546875 C 96.140625 52.128906 92.050781 48.246094 87.386719 45.097656 C 85.441406 44.046875 83.597656 42.804688 81.75 41.589844 C 79.898438 40.378906 78.046875 39.195312 76.074219 38.257812 C 72.832031 36.632812 71.492188 36.777344 71.671875 37.5625 C 71.851562 38.347656 73.550781 39.765625 76.390625 40.6875 C 78.859375 43.175781 81.53125 45.3125 84.136719 47.523438 C 86.742188 49.730469 89.28125 52.011719 91.480469 54.785156 C 95.765625 59.847656 99.109375 65.660156 101.601562 71.839844 C 104.089844 78.015625 105.726562 84.558594 106.59375 91.074219 C 105.839844 94.367188 104.925781 92.632812 104.039062 89.671875 C 103.152344 86.710938 102.292969 82.523438 101.636719 80.910156 C 99.859375 75.058594 97.628906 69.085938 94.59375 63.640625 C 91.558594 58.195312 87.71875 53.273438 82.71875 49.519531 C 80.769531 47.460938 78.78125 45.441406 76.679688 43.542969 C 74.582031 41.644531 72.371094 39.867188 69.976562 38.289062 C 67.03125 37.035156 67.566406 37.007812 68.488281 36.957031 C 69.40625 36.910156 70.710938 36.835938 69.296875 35.496094 C 69.722656 35.5 69.875 35.246094 69.957031 34.929688 C 70.042969 34.609375 70.066406 34.230469 70.234375 33.988281 Z M 151.382812 89.019531 C 152.476562 91.699219 151.574219 94.757812 151.027344 96.589844 C 150.480469 98.417969 150.289062 99.023438 152.804688 96.796875 C 151.734375 99.386719 149.929688 101.710938 148.121094 104.085938 C 146.308594 106.464844 144.492188 108.890625 143.390625 111.679688 C 142.234375 114.476562 140.550781 116.875 138.824219 119.238281 C 137.097656 121.605469 135.335938 123.9375 134.019531 126.613281 C 132.066406 129.953125 130.503906 131.230469 129.980469 130.933594 C 129.453125 130.636719 129.960938 128.765625 132.152344 125.800781 C 134.042969 122.007812 136.4375 118.519531 138.777344 115.003906 C 141.117188 111.488281 143.40625 107.941406 145.09375 104.027344 C 146.996094 102.039062 148.273438 99.550781 149.222656 96.925781 C 150.171875 94.300781 150.792969 91.542969 151.382812 89.019531 Z M 75.441406 100.546875 C 75.738281 100.421875 75.679688 100.570312 75.574219 100.675781 C 75.46875 100.785156 75.316406 100.84375 75.441406 100.546875 Z M 178.289062 131.214844 C 177.289062 136.628906 176.050781 142.058594 174.816406 147.496094 C 173.582031 152.9375 172.347656 158.386719 171.347656 163.839844 C 170.15625 166.644531 169.777344 169.714844 170.28125 172.605469 C 170.78125 175.492188 172.167969 178.199219 174.5 180.277344 C 177.03125 183.289062 179.992188 185.855469 182.925781 188.453125 C 185.863281 191.054688 188.769531 193.683594 191.1875 196.828125 C 193.972656 199.070312 196.527344 201.8125 199.363281 204.007812 C 202.199219 206.203125 205.316406 207.855469 209.230469 207.921875 C 212.050781 208.152344 214.824219 208.832031 217.589844 209.3125 C 220.359375 209.792969 223.121094 210.082031 225.925781 209.527344 C 226.296875 209.6875 222.84375 208.105469 220.621094 206.667969 C 218.394531 205.230469 217.398438 203.9375 222.679688 204.675781 C 225.410156 205.730469 228.324219 206.214844 231.21875 206.804688 C 234.113281 207.394531 236.984375 208.09375 239.632812 209.578125 C 240.640625 209.421875 243.988281 209.226562 246.695312 208.75 C 249.402344 208.273438 251.464844 207.515625 249.894531 206.242188 C 248.554688 204.429688 245.53125 204.632812 243.015625 204.671875 C 240.5 204.707031 238.492188 204.574219 239.183594 202.089844 C 242.832031 198.875 238.507812 199.4375 234.625 199.890625 C 230.742188 200.339844 227.300781 200.679688 232.707031 197.023438 C 236.363281 196.660156 239.746094 194.664062 241.492188 191.886719 C 243.242188 189.105469 243.355469 185.539062 240.476562 182.03125 C 238.121094 177.75 236.300781 173.070312 234.0625 168.6875 C 231.824219 164.300781 229.171875 160.207031 225.15625 157.097656 C 221.230469 156.542969 217.289062 155.925781 213.457031 154.9375 C 209.625 153.949219 205.898438 152.589844 202.394531 150.554688 C 198.628906 148.96875 195.417969 146.609375 192.332031 144.078125 C 189.25 141.546875 186.292969 138.84375 183.046875 136.566406 C 182.390625 135.53125 181.59375 134.65625 180.765625 133.808594 C 179.933594 132.960938 179.074219 132.140625 178.289062 131.214844 Z M 72.621094 154.921875 C 72.917969 154.800781 72.855469 154.949219 72.75 155.054688 C 72.648438 155.160156 72.496094 155.222656 72.621094 154.921875 Z M 81.300781 180.808594 C 80.183594 185.375 76.886719 188.925781 72.8125 191.777344 C 68.742188 194.625 63.894531 196.777344 59.675781 198.550781 C 57.324219 200.207031 54.441406 201.617188 51.640625 202.882812 C 48.84375 204.144531 46.121094 205.257812 44.097656 206.320312 C 49.515625 205.433594 54.839844 203.363281 60.226562 201.851562 C 65.617188 200.335938 71.070312 199.375 76.75 200.710938 C 80.449219 201.304688 84.167969 201.75 87.890625 201.910156 C 91.613281 202.066406 95.347656 201.941406 99.078125 201.386719 C 100.660156 201.015625 98.605469 199.144531 96.019531 196.800781 C 93.433594 194.460938 90.316406 191.652344 89.777344 189.414062 C 88.597656 187.78125 87.175781 186.351562 85.699219 184.96875 C 84.222656 183.585938 82.695312 182.25 81.300781 180.808594 Z M 137.714844 186.898438 C 139.109375 182.382812 141.4375 182.796875 142.386719 184.160156 C 143.335938 185.523438 142.910156 187.835938 138.800781 187.113281 C 139.679688 188.648438 141.011719 190.800781 141.726562 192.066406 C 142.445312 193.332031 142.546875 193.710938 140.96875 191.707031 C 140.703125 191.226562 140.035156 190.109375 139.792969 189.949219 C 139.546875 189.792969 139.726562 190.597656 141.148438 193.960938 C 140.542969 195.351562 140.152344 193.757812 139.679688 191.734375 C 139.203125 189.707031 138.648438 187.246094 137.714844 186.898438 Z M 83.253906 183.417969 C 83.550781 183.292969 83.488281 183.441406 83.382812 183.546875 C 83.277344 183.652344 83.128906 183.714844 83.253906 183.417969 Z M 184.148438 189.507812 C 183.851562 189.382812 183.914062 189.53125 184.015625 189.636719 C 184.121094 189.746094 184.273438 189.804688 184.148438 189.507812 Z M 51.355469 204.296875 C 51.65625 204.175781 51.59375 204.324219 51.488281 204.429688 C 51.382812 204.535156 51.234375 204.597656 51.355469 204.296875 Z M 122.960938 205.386719 C 123.257812 205.261719 123.195312 205.410156 123.089844 205.515625 C 122.984375 205.621094 122.835938 205.683594 122.960938 205.386719 Z M 73.273438 205.601562 C 73.570312 205.480469 73.507812 205.628906 73.402344 205.734375 C 73.296875 205.839844 73.148438 205.902344 73.273438 205.601562 Z M 122.527344 205.601562 C 122.824219 205.480469 122.761719 205.628906 122.65625 205.734375 C 122.550781 205.839844 122.402344 205.902344 122.527344 205.601562 Z M 37.902344 206.472656 C 38.203125 206.347656 38.140625 206.5 38.035156 206.605469 C 37.929688 206.710938 37.78125 206.773438 37.902344 206.472656 Z M 60.035156 207.996094 C 60.335938 207.871094 60.273438 208.019531 60.167969 208.125 C 60.0625 208.234375 59.914062 208.292969 60.035156 207.996094 Z M 199.769531 208.867188 C 200.070312 208.742188 200.007812 208.890625 199.902344 208.996094 C 199.796875 209.101562 199.648438 209.164062 199.769531 208.867188 Z M 40.074219 211.476562 C 40.371094 211.351562 40.308594 211.5 40.203125 211.605469 C 40.097656 211.710938 39.949219 211.773438 40.074219 211.476562 Z M 40.074219 211.476562 "/>
<path style=" stroke:none;fill-rule:nonzero;fill:rgb(3.137255%,3.137255%,3.137255%);fill-opacity:1;" d="M 205.671875 30.070312 C 202.503906 30.734375 199.988281 32.941406 197.339844 34.660156 C 189.378906 40.507812 183.34375 48.746094 179.546875 57.824219 C 174.839844 68.582031 172.203125 80.082031 169.691406 91.507812 C 169.632812 92.054688 169.414062 92.671875 169.644531 93.195312 C 170.621094 93.789062 171.761719 94.164062 172.898438 94.261719 C 173.710938 94.222656 174.183594 93.445312 174.277344 92.710938 C 174.816406 90.96875 174.859375 89.085938 175.546875 87.390625 C 175.882812 86.964844 176.417969 87.570312 176.664062 87.851562 C 178.105469 89.785156 179.878906 91.445312 181.425781 93.292969 C 182.742188 94.84375 184.070312 96.46875 184.933594 98.304688 C 184.832031 99.058594 183.898438 98.964844 183.359375 98.820312 C 179.609375 98.304688 175.941406 97.253906 172.242188 96.402344 C 162.097656 93.871094 151.871094 91.550781 141.476562 90.3125 C 134.636719 89.554688 127.660156 89.308594 120.855469 90.515625 C 109.121094 92.671875 98.082031 99.234375 91.207031 109.070312 C 84.65625 118.203125 80.941406 128.964844 77.917969 139.6875 C 77.078125 142.722656 76.199219 145.796875 75.976562 148.949219 C 76.097656 150.09375 77.59375 151.046875 78.574219 150.230469 C 80.21875 148.84375 80.597656 146.59375 81.433594 144.71875 C 83.078125 140.324219 84.40625 135.800781 86.433594 131.558594 C 86.792969 130.933594 87.71875 130.503906 88.289062 131.105469 C 89.398438 132.003906 90.082031 133.304688 91.070312 134.324219 C 97.226562 141.882812 103.375 149.453125 109.347656 157.160156 C 109.191406 157.886719 108.269531 157.679688 107.742188 157.632812 C 102.25 157.625 96.773438 157.109375 91.375 156.140625 C 82.378906 155.285156 73.84375 152.074219 65.199219 149.601562 C 61.023438 148.425781 56.734375 147.679688 52.421875 147.230469 C 44.488281 146.269531 36.46875 145.746094 28.488281 146.273438 C 19.273438 147.394531 10.601562 151.484375 3.261719 157.066406 C 2.003906 158.09375 0.628906 159.191406 0 160.722656 C 0.0195312 161.550781 1.035156 161.511719 1.625 161.582031 C 3.867188 162.046875 5.210938 164.132812 7.097656 165.261719 C 8.328125 165.734375 9.4375 164.714844 10.4375 164.15625 C 13.246094 162.425781 15.917969 160.207031 19.203125 159.488281 C 20.425781 159.648438 20.933594 160.957031 21.777344 161.679688 C 29.472656 170.199219 36.613281 179.203125 43.914062 188.0625 C 47.683594 192.738281 51.476562 197.417969 54.914062 202.34375 C 55.4375 203.679688 54.425781 204.976562 53.757812 206.050781 C 51.722656 208.960938 48.585938 211.203125 47.570312 214.746094 C 46.917969 216.996094 46.691406 219.402344 47.023438 221.71875 C 47.449219 222.363281 48.226562 221.851562 48.628906 221.464844 C 52.304688 218.527344 55.480469 215.023438 58.613281 211.527344 C 62.15625 207.464844 65.203125 202.941406 67.34375 197.976562 C 71.070312 189.941406 73.625 181.417969 75.613281 172.804688 C 76.339844 169.644531 77.089844 166.484375 77.601562 163.285156 C 77.726562 161.96875 77.257812 160.308594 75.847656 159.898438 C 74.753906 159.578125 73.621094 160.382812 73.363281 161.449219 C 72.175781 164.0625 71.914062 166.960938 71.167969 169.703125 C 70.707031 171.691406 70.269531 173.769531 69.214844 175.53125 C 68.355469 175.871094 67.765625 174.902344 67.226562 174.410156 C 63.574219 170.769531 60.46875 166.636719 57.265625 162.609375 C 55.472656 160.238281 53.648438 157.851562 52.304688 155.199219 C 52.136719 154.609375 52.699219 154.160156 53.253906 154.277344 C 54.992188 154.335938 56.730469 154.589844 58.464844 154.796875 C 67.484375 156.0625 76.246094 158.648438 85.101562 160.75 C 91.484375 162.4375 97.976562 163.972656 104.609375 164.140625 C 112.148438 164.535156 119.707031 164.445312 127.25 164.230469 C 130.796875 163.960938 134.21875 162.789062 137.347656 161.128906 C 144.128906 157.878906 150.097656 152.992188 154.6875 147.039062 C 161.953125 137.839844 166.34375 126.730469 169.277344 115.472656 C 170.027344 112.605469 170.835938 109.738281 171.367188 106.824219 C 171.464844 105.625 171.460938 104.226562 170.46875 103.363281 C 169.738281 102.570312 168.640625 101.726562 167.507812 102.066406 C 166.488281 102.601562 166.652344 103.945312 166.4375 104.90625 C 166.035156 107.613281 165.933594 110.503906 164.464844 112.890625 C 163.769531 113.445312 162.964844 112.695312 162.492188 112.210938 C 159.257812 109.066406 156.359375 105.574219 153.710938 101.925781 C 153.148438 101.070312 152.523438 100.207031 152.214844 99.238281 C 152.339844 98.363281 153.441406 98.382812 154.105469 98.535156 C 159.453125 99.042969 164.542969 100.914062 169.765625 102.089844 C 172.800781 102.792969 175.800781 103.660156 178.8125 104.464844 C 192.269531 107.785156 206.289062 109.757812 220.136719 108.0625 C 226.789062 107.222656 233.410156 105.140625 238.890625 101.1875 C 244.75 97.199219 250.019531 92.226562 253.929688 86.289062 C 255.179688 84.253906 256.394531 82.125 257.050781 79.820312 C 256.875 79.003906 255.917969 79.199219 255.308594 79.140625 C 253.070312 78.882812 251.359375 77.164062 249.898438 75.59375 C 249.117188 75.199219 248.484375 76.0625 248.140625 76.648438 C 246.058594 79.449219 244.613281 82.855469 241.75 84.96875 C 240.757812 85.050781 240.269531 83.960938 239.570312 83.449219 C 231.972656 76.058594 224.890625 68.160156 217.644531 60.425781 C 212.050781 54.371094 206.453125 48.316406 200.917969 42.210938 C 200.960938 41.332031 202.074219 41.253906 202.644531 40.839844 C 204.621094 39.761719 206.867188 39.019531 208.523438 37.453125 C 208.785156 36.464844 207.632812 36.015625 207.246094 35.265625 C 206.277344 33.988281 205.703125 32.238281 206.316406 30.707031 C 206.328125 30.363281 206.019531 30.050781 205.671875 30.070312 Z M 193.855469 49.378906 C 195.328125 49.863281 196.089844 51.347656 197.265625 52.253906 C 209.6875 64.679688 221.371094 77.808594 233.382812 90.621094 C 233.804688 91.109375 234.304688 91.59375 234.59375 92.160156 C 234.296875 93.035156 233.199219 93.113281 232.5625 93.660156 C 229.902344 95.257812 227.304688 97.121094 224.257812 97.871094 C 222.816406 97.511719 222.015625 96.121094 220.871094 95.28125 C 212.820312 87.6875 205.308594 79.550781 197.726562 71.492188 C 194.121094 67.570312 190.496094 63.636719 187.269531 59.398438 C 186.617188 58.050781 187.648438 56.734375 188.207031 55.5625 C 189.449219 53.355469 190.9375 51.195312 193.003906 49.691406 C 193.261719 49.535156 193.550781 49.371094 193.855469 49.378906 Z M 182.605469 66.675781 C 184.476562 67.550781 185.617188 69.371094 187.167969 70.65625 C 195.839844 79.324219 204.199219 88.300781 212.21875 97.570312 C 212.84375 98.367188 213.609375 99.167969 213.941406 100.109375 C 213.695312 100.996094 212.566406 100.863281 211.859375 101.03125 C 208.445312 101.519531 204.949219 101.457031 201.503906 101.324219 C 199.460938 101.1875 197.4375 100.542969 195.855469 99.21875 C 192.90625 96.949219 190.648438 93.972656 188.1875 91.214844 C 185.304688 87.796875 182.230469 84.515625 179.664062 80.851562 C 178.757812 79.539062 178.125 77.859375 178.605469 76.253906 C 179.0625 74.355469 179.78125 72.527344 180.292969 70.640625 C 180.722656 69.390625 181.050781 68.023438 181.894531 66.980469 C 182.082031 66.824219 182.347656 66.621094 182.605469 66.675781 Z M 126.59375 97.078125 C 131.070312 97.261719 135.601562 96.988281 140.0625 97.328125 C 141.09375 98.074219 141.652344 99.273438 142.527344 100.175781 C 148.675781 107.894531 154.945312 115.515625 161.027344 123.285156 C 161 124.5625 160.023438 125.527344 159.679688 126.714844 C 158.5625 129.113281 157.652344 131.757812 155.765625 133.667969 C 154.734375 133.792969 154.15625 132.6875 153.46875 132.105469 C 149.449219 127.953125 145.984375 123.304688 142.316406 118.847656 C 136.765625 111.832031 131.277344 104.75 125.976562 97.554688 C 126.015625 97.273438 126.316406 97.066406 126.59375 97.078125 Z M 117.367188 99.800781 C 118.796875 100.175781 119.476562 101.636719 120.488281 102.578125 C 127.714844 111.023438 134.015625 120.199219 140.863281 128.945312 C 143.972656 133.046875 147.167969 137.09375 150.15625 141.277344 C 149.960938 142.308594 148.835938 142.726562 148.296875 143.554688 C 146.550781 145.402344 144.726562 147.457031 142.253906 148.261719 C 141.027344 148.09375 140.476562 146.820312 139.625 146.078125 C 133.566406 139.25 128.160156 131.878906 122.605469 124.644531 C 117.484375 117.851562 112.375 111.039062 107.320312 104.199219 C 107.355469 103.34375 108.449219 103.289062 109.015625 102.90625 C 111.652344 101.574219 114.339844 99.855469 117.367188 99.800781 Z M 99.964844 111.242188 C 101.558594 111.945312 102.292969 113.667969 103.503906 114.816406 C 112.515625 125.695312 121.050781 136.960938 129.386719 148.359375 C 130.480469 149.921875 131.640625 151.5 132.472656 153.203125 C 132.5625 154.316406 131.367188 154.929688 130.496094 155.242188 C 128.265625 156.042969 125.863281 156.148438 123.621094 156.898438 C 122.300781 157.269531 120.6875 157.335938 119.597656 156.328125 C 117.59375 154.800781 116.128906 152.6875 114.480469 150.792969 C 109.96875 145.140625 105.722656 139.289062 101.308594 133.558594 C 98.644531 130 95.925781 126.453125 93.75 122.566406 C 93.007812 121.074219 92.804688 119.132812 93.859375 117.742188 C 95.007812 115.933594 96.375 114.25 97.800781 112.648438 C 98.410156 112.039062 99.121094 111.476562 99.964844 111.242188 Z M 39.035156 153.382812 C 40.277344 153.652344 40.9375 154.894531 41.800781 155.710938 C 49.890625 164.832031 57.25 174.605469 64.601562 184.296875 C 65.25 185.136719 65.558594 186.246094 65.246094 187.277344 C 64.796875 189.339844 63.625 191.140625 62.609375 192.953125 C 62.289062 193.433594 61.722656 194.238281 61.085938 193.695312 C 60.222656 193.042969 59.625 192.109375 58.824219 191.382812 C 51.859375 183.824219 45.425781 175.800781 38.863281 167.894531 C 35.820312 164.125 32.746094 160.363281 30.070312 156.324219 C 29.839844 155.5 30.761719 155.050781 31.402344 154.886719 C 33.839844 154.003906 36.441406 153.394531 39.035156 153.382812 Z M 39.035156 153.382812 "/>
</g>
</svg>
